<svg width="83" height="78" viewBox="0 0 83 78" fill="none" xmlns="http://www.w3.org/2000/svg">
<path fill-rule="evenodd" clip-rule="evenodd" d="M2.47601 53.466H73.593V45.483H2.47601V53.466ZM51.713 65.443H55.656V68.972H20.413V65.443H24.355C25.011 65.443 25.54 64.914 25.54 64.26V55.833H50.528V64.26C50.528 64.914 51.058 65.443 51.713 65.443ZM2.47601 43.116H73.593V2.95002H2.47601V43.115V43.116ZM1.29001 0.585022C0.635011 0.585022 0.105011 1.11402 0.105011 1.76802V54.65C0.105011 55.305 0.635011 55.834 1.29001 55.834H23.17V63.077H19.227C18.572 63.077 18.042 63.609 18.042 64.261V70.156C18.042 70.808 18.572 71.34 19.227 71.34H56.842C57.496 71.34 58.027 70.808 58.027 70.156V64.26C58.027 63.608 57.496 63.076 56.842 63.076H52.898V55.833H74.778C75.433 55.833 75.964 55.303 75.964 54.649V1.77002C75.964 1.11502 75.433 0.586022 74.779 0.586022H1.29001V0.585022Z" fill="#62E0D9"/>
<path fill-rule="evenodd" clip-rule="evenodd" d="M36.412 47.92C35.758 47.92 35.227 48.45 35.227 49.104C35.227 49.4183 35.3519 49.7197 35.5741 49.942C35.7963 50.1642 36.0977 50.289 36.412 50.289C36.7263 50.289 37.0277 50.1642 37.2499 49.942C37.4722 49.7197 37.597 49.4183 37.597 49.104C37.597 48.451 37.066 47.92 36.412 47.92Z" fill="#62E0D9"/>
<path d="M79.357 23.891H58.66C57.3003 23.891 56.198 24.9933 56.198 26.353V74.224C56.198 75.5837 57.3003 76.686 58.66 76.686H79.357C80.7167 76.686 81.819 75.5837 81.819 74.224V26.353C81.819 24.9933 80.7167 23.891 79.357 23.891Z" fill="#181F2B" stroke="#62E0D9" stroke-width="1.641"/>
<path fill-rule="evenodd" clip-rule="evenodd" d="M56.106 29.716H81.909V30.716H56.106V29.716ZM56.106 67.585H81.909V68.585H56.106V67.585Z" fill="white" stroke="#62E0D9" stroke-width="1.458"/>
<path d="M68.415 72.772C69.0695 72.772 69.6 72.2424 69.6 71.589C69.6 70.9357 69.0695 70.406 68.415 70.406C67.7606 70.406 67.23 70.9357 67.23 71.589C67.23 72.2424 67.7606 72.772 68.415 72.772Z" stroke="#62E0D9" stroke-width="1.01"/>
<path fill-rule="evenodd" clip-rule="evenodd" d="M45.4 15.969H45.203L39.968 18.039L34.041 15.969L28.51 17.843C28.312 17.941 28.115 18.04 28.115 18.336V33.226C28.115 33.523 28.312 33.72 28.609 33.72H28.806L34.041 31.649L39.968 33.719L45.499 31.846C45.697 31.747 45.894 31.55 45.894 31.353V16.462C45.894 16.166 45.697 15.969 45.4 15.969ZM39.968 30.76L34.041 28.763V17.448L39.968 19.445V30.761V30.76Z" fill="#62E0D9"/>
<path fill-rule="evenodd" clip-rule="evenodd" d="M30.485 15.969C29.165 15.969 28.115 16.886 28.115 18.039C28.115 19.579 30.485 21.886 30.485 21.886C30.485 21.886 32.856 19.578 32.856 18.04C32.856 16.886 31.806 15.969 30.486 15.969H30.485ZM30.485 18.927C29.975 18.927 29.574 18.566 29.574 18.106C29.574 17.646 29.974 17.284 30.485 17.284C30.996 17.284 31.397 17.645 31.397 18.106C31.397 18.566 30.996 18.927 30.485 18.927Z" fill="white"/>
</svg>
