<svg width="91" height="64" viewBox="0 0 91 64" fill="none" xmlns="http://www.w3.org/2000/svg">
<path fill-rule="evenodd" clip-rule="evenodd" d="M85.588 59C88.025 59 90 57.144 90 54.853V9.236C90 7.71 88.682 6.472 87.059 6.472L85.589 59H85.588ZM15 12.048V52.095C15 55.908 18.098 59 21.92 59H85.588C85.0433 59.0007 84.5039 58.894 84.0004 58.6861C83.4969 58.4783 83.0394 58.1733 82.6538 57.7886C82.2682 57.4038 81.9622 56.9469 81.7533 56.4439C81.5443 55.9409 81.4365 55.4017 81.436 54.857V3.762C81.4349 3.02876 81.1428 2.32594 80.6237 1.80802C80.1047 1.2901 79.4012 0.99947 78.668 1H62.058L56.522 9.286H17.768C17.0348 9.28547 16.3313 9.5761 15.8123 10.094C15.2932 10.6119 15.0011 11.3148 15 12.048V12.048Z" stroke="#62E0D9" stroke-width="1.405" stroke-linecap="round" stroke-linejoin="round"/>
<path fill-rule="evenodd" clip-rule="evenodd" d="M41.28 27.561V30.762C41.28 31.823 42.121 32.682 43.16 32.682H46.29L41.28 27.561ZM48.795 32.682V32.463C48.795 31.784 48.531 31.133 48.061 30.652L43.267 25.75C43.0365 25.5132 42.761 25.3249 42.4567 25.1961C42.1524 25.0673 41.8254 25.0007 41.495 25H27.505C26.12 25 25 26.147 25 27.561V54.451C25 55.865 26.121 57.011 27.505 57.011H46.29C47.673 57.011 48.795 55.865 48.795 54.451V45.488" fill="#62E0D9"/>
<path fill-rule="evenodd" clip-rule="evenodd" d="M33.766 49.33V53.17H37.523L49.421 41.006L45.664 37.165L33.766 49.329V49.33ZM49.421 41.006L50.749 39.648C51.1022 39.284 51.2997 38.7967 51.2997 38.2895C51.2997 37.7823 51.1022 37.2951 50.749 36.931L49.649 35.807C49.4765 35.6291 49.27 35.4876 49.0418 35.3909C48.8136 35.2943 48.5683 35.2445 48.3205 35.2445C48.0727 35.2445 47.8274 35.2943 47.5991 35.3909C47.3709 35.4876 47.1645 35.6291 46.992 35.807L45.664 37.165L49.421 41.006Z" stroke="white" stroke-width="0.803" stroke-linejoin="round"/>
<path d="M30.009 45.4881H37.523M30.01 37.8051H42.533H30.01ZM30.009 41.6461H41.281H30.009Z" stroke="white" stroke-width="0.803" stroke-linecap="round" stroke-linejoin="round"/>
<path fill-rule="evenodd" clip-rule="evenodd" d="M32.367 59.432C32.367 61.404 30.757 63.004 28.771 63.004H3.596C1.611 63.004 0 61.404 0 59.432V41.572C0 39.6 1.61 38 3.596 38H28.771C30.756 38 32.367 39.6 32.367 41.572V59.432ZM10.789 44.55C10.7861 45.342 10.4687 46.1005 9.90671 46.6586C9.34469 47.2166 8.58403 47.5287 7.792 47.526C6.99997 47.5287 6.23931 47.2166 5.67729 46.6586C5.11527 46.1005 4.79791 45.342 4.795 44.55C4.79631 44.1577 4.87487 43.7696 5.02619 43.4077C5.17752 43.0458 5.39864 42.7172 5.67694 42.4408C5.95524 42.1644 6.28526 41.9454 6.64816 41.7965C7.01106 41.6476 7.39974 41.5717 7.792 41.573C8.18426 41.5717 8.57294 41.6476 8.93584 41.7965C9.29874 41.9454 9.62876 42.1644 9.90706 42.4408C10.1854 42.7172 10.4065 43.0458 10.5578 43.4077C10.7091 43.7696 10.7877 44.1577 10.789 44.55Z" fill="#62E0D9"/>
<path d="M26.786 58.656L19.737 51.2L16.8 54.307L12.688 49.958L4.464 58.656" stroke="white" stroke-width="0.65" stroke-linecap="round" stroke-linejoin="round"/>
</svg>
