<svg width="86" height="71" viewBox="0 0 86 71" fill="none" xmlns="http://www.w3.org/2000/svg">
<path fill-rule="evenodd" clip-rule="evenodd" d="M33.897 11.338V13.365V11.338V11.338ZM33.897 51.889V53.917V51.889ZM54.207 33.6409H52.176H54.207ZM13.587 33.6409H11.555H13.586H13.587ZM32.881 41.7509C32.101 41.7509 31.321 41.455 30.728 40.861L17.648 27.804L21.956 23.504L32.881 34.41L60.176 7.15995L64.486 11.46L35.036 40.86C34.753 41.1428 34.417 41.367 34.0472 41.5198C33.6774 41.6725 33.2811 41.7507 32.881 41.75V41.7509ZM56.035 11.334C50.283 5.10395 42.039 1.19995 32.88 1.19995C15.495 1.19995 1.39999 15.2709 1.39999 32.6269C1.39999 49.983 15.495 64.055 32.881 64.055C50.267 64.055 64.362 49.983 64.362 32.6269C64.362 26.6089 62.668 20.987 59.732 16.21L56.035 11.334V11.334ZM51.7 15.616C49.3203 12.988 46.4157 10.8885 43.1739 9.45311C39.9321 8.01775 36.4253 7.27844 32.88 7.28295C18.858 7.28295 7.49199 18.6289 7.49199 32.6269C7.49199 46.6259 18.858 57.972 32.88 57.972C46.902 57.972 58.268 46.6259 58.268 32.6269C58.268 28.2979 57.181 24.2249 55.266 20.6609L51.7 15.616V15.616Z" stroke="#62E0D9" stroke-width="1.3" stroke-linecap="round" stroke-linejoin="round"/>
<path fill-rule="evenodd" clip-rule="evenodd" d="M55.368 40.4839C55.368 42.9639 53.353 44.9739 50.87 44.9739C49.6783 44.9747 48.535 44.5021 47.6917 43.6601C46.8484 42.8181 46.374 41.6756 46.373 40.4839C46.373 38.0039 48.388 35.9939 50.87 35.9939C51.4601 35.9934 52.0446 36.1091 52.5901 36.3345C53.1355 36.5598 53.6312 36.8904 54.0489 37.3073C54.4666 37.7243 54.798 38.2194 55.0244 38.7644C55.2507 39.3095 55.3675 39.8937 55.368 40.4839V40.4839Z" stroke="#62E0D9" stroke-width="1.3" stroke-linejoin="round"/>
<path fill-rule="evenodd" clip-rule="evenodd" d="M50.87 44.9739C48.972 44.9739 47.258 45.5569 46.031 46.1279C45.4579 46.4001 44.9741 46.8299 44.6364 47.3671C44.2987 47.9042 44.121 48.5264 44.124 49.1609V56.1979C44.1248 56.7938 44.3621 57.3649 44.7838 57.7859C45.2055 58.2069 45.7771 58.4432 46.373 58.4429V67.4219C46.3733 67.717 46.4316 68.0091 46.5448 68.2816C46.658 68.5542 46.8237 68.8017 47.0325 69.0102C47.2414 69.2187 47.4892 69.3839 47.762 69.4966C48.0347 69.6093 48.3269 69.6672 48.622 69.6669H53.119C53.4141 69.6672 53.7063 69.6093 53.979 69.4966C54.2518 69.3839 54.4996 69.2187 54.7085 69.0102C54.9173 68.8017 55.083 68.5542 55.1962 68.2816C55.3094 68.0091 55.3677 67.717 55.368 67.4219V58.4419C55.9635 58.4419 56.5347 58.2056 56.9562 57.7849C57.3776 57.3642 57.6149 56.7934 57.616 56.1979V49.1599C57.619 48.5254 57.4413 47.9032 57.1036 47.3661C56.7659 46.8289 56.2821 46.3991 55.709 46.1269C54.483 45.5569 52.769 44.9729 50.87 44.9729V44.9739Z" stroke="#62E0D9" stroke-width="1.3" stroke-linecap="round" stroke-linejoin="round"/>
<path fill-rule="evenodd" clip-rule="evenodd" d="M68.86 40.4839C68.86 42.9639 66.846 44.9739 64.362 44.9739C63.7719 44.9744 63.1874 44.8587 62.6421 44.6333C62.0967 44.408 61.601 44.0774 61.1834 43.6604C60.7658 43.2435 60.4345 42.7483 60.2082 42.2033C59.982 41.6583 59.8654 41.074 59.865 40.4839C59.865 38.0039 61.879 35.9939 64.362 35.9939C64.9521 35.9934 65.5365 36.1091 66.0819 36.3345C66.6273 36.5598 67.1229 36.8904 67.5405 37.3074C67.9581 37.7243 68.2895 38.2195 68.5157 38.7645C68.742 39.3095 68.8586 39.8938 68.859 40.4839H68.86Z" stroke="#62E0D9" stroke-width="1.3" stroke-linejoin="round"/>
<path fill-rule="evenodd" clip-rule="evenodd" d="M64.362 44.9739C62.464 44.9739 60.75 45.5569 59.523 46.1279C58.9499 46.4001 58.4661 46.8299 58.1284 47.3671C57.7907 47.9042 57.6129 48.5264 57.616 49.1609V56.1979C57.6163 56.493 57.6746 56.7851 57.7878 57.0576C57.901 57.3302 58.0667 57.5777 58.2755 57.7862C58.4844 57.9946 58.7322 58.1599 59.0049 58.2726C59.2777 58.3853 59.5699 58.4432 59.865 58.4429V67.4219C59.8658 68.0178 60.1031 68.5889 60.5248 69.0099C60.9465 69.4308 61.5181 69.6672 62.114 69.6669H66.611C67.2068 69.6672 67.7782 69.4308 68.1998 69.0098C68.6213 68.5888 68.8585 68.0177 68.859 67.4219V58.4419C69.1541 58.4423 69.4463 58.3846 69.7191 58.272C69.9919 58.1594 70.2398 57.9943 70.4487 57.7859C70.6577 57.5775 70.8235 57.33 70.9368 57.0576C71.0501 56.7851 71.1086 56.493 71.109 56.1979V49.1599C71.1119 48.5253 70.934 47.903 70.5961 47.3659C70.2582 46.8287 69.7743 46.399 69.201 46.1269C67.975 45.5569 66.26 44.9729 64.362 44.9729V44.9739Z" stroke="#62E0D9" stroke-width="1.3" stroke-linecap="round" stroke-linejoin="round"/>
<path fill-rule="evenodd" clip-rule="evenodd" d="M82.351 40.4839C82.351 42.9639 80.338 44.9739 77.854 44.9739C77.2639 44.9744 76.6794 44.8587 76.1341 44.6333C75.5887 44.408 75.093 44.0774 74.6754 43.6604C74.2578 43.2435 73.9265 42.7483 73.7002 42.2033C73.474 41.6583 73.3574 41.074 73.357 40.4839C73.357 38.0039 75.37 35.9939 77.854 35.9939C78.4441 35.9934 79.0285 36.1091 79.5739 36.3345C80.1193 36.5598 80.6149 36.8904 81.0325 37.3074C81.4501 37.7243 81.7815 38.2195 82.0077 38.7645C82.234 39.3095 82.3506 39.8938 82.351 40.4839V40.4839Z" stroke="#62E0D9" stroke-width="1.3" stroke-linejoin="round"/>
<path fill-rule="evenodd" clip-rule="evenodd" d="M77.854 44.9739C75.956 44.9739 74.242 45.5569 73.015 46.1279C72.4419 46.4001 71.9581 46.8299 71.6204 47.3671C71.2827 47.9042 71.105 48.5264 71.108 49.1609V56.1979C71.1083 56.493 71.1666 56.7851 71.2798 57.0576C71.393 57.3302 71.5587 57.5777 71.7675 57.7862C71.9764 57.9946 72.2242 58.1599 72.4969 58.2726C72.7697 58.3853 73.0619 58.4432 73.357 58.4429V67.4219C73.3578 68.0176 73.595 68.5886 74.0165 69.0095C74.438 69.4305 75.0093 69.6669 75.605 69.6669H80.103C80.6988 69.6672 81.2702 69.4308 81.6918 69.0098C82.1134 68.5888 82.3505 68.0177 82.351 67.4219V58.4419C82.9468 58.4424 83.5184 58.2063 83.9401 57.7855C84.3618 57.3647 84.5992 56.7937 84.6 56.1979V49.1599C84.603 48.5254 84.4253 47.9032 84.0876 47.3661C83.7498 46.8289 83.2661 46.3991 82.693 46.1269C81.467 45.5569 79.752 44.9729 77.854 44.9729V44.9739Z" stroke="#62E0D9" stroke-width="1.3" stroke-linecap="round" stroke-linejoin="round"/>
</svg>
