<svg width="70" height="88" viewBox="0 0 70 88" fill="none" xmlns="http://www.w3.org/2000/svg">
<path fill-rule="evenodd" clip-rule="evenodd" d="M43.703 35.501L31.473 47.975L22.474 38.798L17.975 43.387L31.472 57.153L52.08 36.137L47.58 31.548L43.703 35.501Z" stroke="#62E0D9" stroke-width="3.064"/>
<path fill-rule="evenodd" clip-rule="evenodd" d="M56.916 9.85003C51.574 9.85003 46.263 8.71403 41.434 6.36603C39.121 5.25303 36.755 3.83303 34.71 2.06403C32.665 3.83303 30.299 5.25303 27.985 6.36603C23.157 8.71403 17.847 9.85003 12.504 9.85003H1.914V50.44C1.914 57.55 4.731 64.385 9.741 69.333C17.097 76.583 34.711 86.007 34.711 86.007C34.711 86.007 52.323 76.583 59.679 69.333C64.689 64.385 67.506 57.549 67.506 50.44V9.85003H56.916Z" stroke="#62E0D9" stroke-width="3.064"/>
<path fill-rule="evenodd" clip-rule="evenodd" d="M58.94 24.532V50.781C58.94 55.523 57.037 60.121 53.721 63.396C49.109 67.943 38.594 74.166 34.711 76.396C30.825 74.163 20.301 67.933 15.694 63.392C12.38 60.12 10.48 55.523 10.48 50.781V18.927H12.504C19.211 18.927 25.838 17.428 31.671 14.594C32.7048 14.0969 33.7189 13.5598 34.711 12.984C35.683 13.549 36.711 14.094 37.775 14.607C43.589 17.433 50.209 18.927 56.916 18.927H58.94V24.532Z" stroke="#62E0D9" stroke-width="3.064"/>
</svg>
