<svg width="31" height="31" viewBox="0 0 31 31" fill="none" xmlns="http://www.w3.org/2000/svg">
<rect x="0.5" y="0.5" width="30" height="30" rx="15" stroke="white"/>
<path d="M23 11.4064C22.4758 11.6255 21.9197 11.7692 21.3503 11.8327C21.9504 11.4945 22.3993 10.962 22.6132 10.3345C22.0494 10.6499 21.4325 10.8722 20.7892 10.9917C20.5205 10.7213 20.1958 10.5059 19.8351 10.3588C19.4745 10.2117 19.0856 10.136 18.6927 10.1365C16.8382 10.1365 15.4756 11.7678 15.8944 13.4612C14.7525 13.4073 13.6353 13.1276 12.6155 12.6402C11.5956 12.1528 10.6959 11.4686 9.97475 10.632C9.60753 11.2282 9.495 11.934 9.66003 12.6057C9.82507 13.2773 10.2553 13.8645 10.8632 14.2477C10.4073 14.2342 9.96148 14.118 9.56292 13.9089C9.53142 15.1635 10.4852 16.3372 11.8665 16.5984C11.4434 16.7068 10.9997 16.7226 10.5692 16.6446C10.7526 17.1827 11.1099 17.6533 11.5911 17.9905C12.0722 18.3277 12.6531 18.5146 13.2525 18.5251C12.0486 19.4155 10.5192 19.819 9 19.6471C10.3134 20.4427 11.8419 20.865 13.403 20.8637C18.7358 20.8637 21.7487 16.6171 21.5667 12.8084C22.1289 12.4249 22.6142 11.9502 23 11.4064Z" fill="white"/>
</svg>
